<?xml version="1.0" encoding="utf-8"?>
<svg xmlns="http://www.w3.org/2000/svg" viewBox="173.2156 128.4603 71 71" width="71px" height="71px"><g fill="none" fill-rule="nonzero" transform="matrix(1, 0, 0, 1, 172.21559143066406, 132.4602508544922)" id="object-0"><rect height="71" rx="14" stroke="#1e1917" stroke-width="2" width="71" x="1" style="fill: rgb(224, 93, 68);" y="-4"/><g fill="#000" transform="matrix(-1 0 0 -1 60 58)"><path d="m11.75 33.869h-9.895c-1.024 0-1.855.83-1.855 1.855v4.947c0 1.024.831 1.854 1.855 1.854h9.895c1.024 0 1.855-.831 1.855-1.854v-4.947c0-1.025-.831-1.855-1.855-1.855z" style="fill: rgb(255, 255, 255);"/><path d="m11.75 22.737h-9.895c-1.024 0-1.855.831-1.855 1.854v4.947c0 1.025.831 1.855 1.855 1.855h9.895c1.024 0 1.855-.83 1.855-1.855v-4.947c0-1.024-.831-1.854-1.855-1.854z" style="fill: rgb(255, 255, 255);"/><path d="m11.75 11.605h-9.895c-1.024 0-1.855.83-1.855 1.855v4.947c0 1.025.831 1.855 1.855 1.855h9.895c1.024 0 1.855-.831 1.855-1.855v-4.947c0-1.024-.831-1.855-1.855-1.855z" style="fill: rgb(255, 255, 255);"/><path d="m28.447 33.869h-9.896c-1.024 0-1.855.83-1.855 1.855v4.947c0 1.024.831 1.854 1.855 1.854h9.896c1.023 0 1.854-.831 1.854-1.854v-4.947c.002-1.025-.828-1.855-1.854-1.855z" style="fill: rgb(255, 255, 255);"/><path d="m28.447 22.737h-9.896c-1.024 0-1.855.831-1.855 1.854v4.947c0 1.025.831 1.855 1.855 1.855h9.896c1.023 0 1.854-.83 1.854-1.855v-4.947c.002-1.024-.828-1.854-1.854-1.854z" style="fill: rgb(255, 255, 255);"/><path d="m45.145 33.869h-9.895c-1.023 0-1.855.83-1.855 1.855v4.947c0 1.024.832 1.854 1.855 1.854h9.895c1.024 0 1.855-.831 1.855-1.854v-4.947c0-1.025-.831-1.855-1.855-1.855z" style="fill: rgb(255, 255, 255);"/><path d="m45.145 22.737h-9.895c-1.023 0-1.855.831-1.855 1.854v4.947c0 1.025.832 1.855 1.855 1.855h9.895c1.024 0 1.855-.83 1.855-1.855v-4.947c0-1.024-.831-1.854-1.855-1.854z" style="fill: rgb(255, 255, 255);"/><path d="m45.145 11.605h-9.895c-1.023 0-1.855.83-1.855 1.855v4.947c0 1.025.832 1.855 1.855 1.855h9.895c1.024 0 1.855-.831 1.855-1.855v-4.947c0-1.024-.831-1.855-1.855-1.855z" style="fill: rgb(255, 255, 255);"/></g></g></svg>